<svg class="logo-colored" xmlns="http://www.w3.org/2000/svg" viewBox="0 0 203 70"><linearGradient id="gradient_a_colored" gradientUnits="userSpaceOnUse" x1="-615.617" y1="-88.265" x2="-413.138" y2="-88.265" gradientTransform="rotate(180 -206.57 -25.432)"><stop offset="0" stop-color="red" stop-opacity="0"></stop><stop offset=".85" stop-color="red"></stop></linearGradient><path fill="url(#gradient_a_colored)" d="M0 35.07h202.48v4.66H0z"></path><path d="m7.443 55.934 1.877 7.618 1.86-7.618h1.578l-2.397 9.368H8.31l-1.75-7.24-1.766 7.24H2.76L.376 55.934h1.625l1.86 7.618 1.862-7.618h1.72zm6.267.236c0-.536.458-.962.98-.962s.977.426.977.962c0 .553-.458.994-.978.994s-.98-.44-.98-.994zm1.768 9.132h-1.562v-6.987h1.562v6.987zm3.55 0h-1.562V58.9c.757-.427 1.735-.695 2.73-.695.488 0 .867.048 1.34.173v1.515c-.442-.173-.93-.22-1.34-.22a3.08 3.08 0 0 0-1.168.22v5.41zm7.165-1.892c.647.49 1.42.788 2.13.788.693 0 1.15-.236 1.15-.788 0-.568-.41-.772-1.31-1.01-1.45-.33-2.065-.914-2.065-2.13 0-1.418 1.072-2.113 2.49-2.113.79 0 1.42.174 2.004.537v1.435c-.615-.44-1.214-.71-1.956-.71-.678 0-1.04.33-1.04.79 0 .455.3.692 1.103.913 1.592.347 2.286.946 2.286 2.208 0 1.468-1.12 2.13-2.634 2.13-.82 0-1.64-.22-2.16-.568V63.41zm6.122-7.24c0-.536.457-.962.978-.962s.978.426.978.962c0 .553-.457.994-.977.994s-.978-.44-.978-.994zm1.767 9.132h-1.56v-6.987h1.56v6.987zm1.988-6.546c.978-.38 2.177-.6 3.2-.6 1.784 0 2.92.68 2.92 2.65v4.495h-1.546v-4.353c0-1.01-.63-1.37-1.498-1.37-.552 0-1.104.077-1.514.203v5.52H36.07v-6.544zm14.5 6.404c-.806.206-1.767.3-2.635.3-2.43 0-4.038-1.293-4.038-3.643 0-2.256 1.593-3.66 3.738-3.66.504 0 1.057.096 1.388.27v-3.85h1.545V65.16zm-1.546-5.362c-.316-.175-.758-.27-1.294-.27-1.31 0-2.255.82-2.255 2.256 0 1.5.978 2.335 2.492 2.335.315 0 .71-.018 1.057-.063v-4.26z" fill="#00468C"></path><path d="M155.827 56.59c-.377 2.345-1.443 4.77-2.76 6.59h-.064l-2.928-6.59h-1.945l1.61 3.557c-.628 1.59-2.237 3.807-4.894 3.807-1.568 0-2.49-.752-2.698-2.03.27.044.65.19 1.924.19 1.735 0 3.724-.816 3.724-3.096 0-1.735-1.318-2.698-3.076-2.698-2.676 0-4.517 1.693-4.517 4.664 0 1.032.196 1.89.563 2.574-.31.224-.725.417-1.232.417-.607 0-.983-.168-.983-1.087v-9.12h-1.818v2.93a4.59 4.59 0 0 0-1.862-.378c-3.137 0-4.622 2.05-4.622 4.79 0 2.635 1.338 4.496 3.994 4.496 1.3 0 2.26-.438 2.812-1.09.416.798 1.216 1.09 2.25 1.09 1.086 0 1.98-.357 2.63-.754.753.504 1.73.754 2.892.754 3.367 0 5.02-2.32 5.752-3.682l1.59 3.453h1.254c2.03-2.26 3.66-5.857 4.246-8.787h-1.84zm-21.48 7.343c-1.465 0-2.196-1.276-2.196-2.824 0-1.967.795-3.117 2.677-3.117.85 0 1.422.18 1.904.438v4.5c0 .022.003.042.003.063-.475.587-1.33.94-2.387.94zm10.27-6.128c.96 0 1.42.438 1.42 1.233 0 1.317-1.002 1.59-2.236 1.59-1.107 0-1.464-.168-1.715-.23.04-1.652 1.15-2.593 2.53-2.593zm-41.459-1.232c-1.2-.063-2.47.17-3.56 1.03l.004.498v5.055c-.885.702-1.672.852-2.188.852-1.313 0-2.146-.794-2.384-1.973a4.313 4.313 0 0 1-.088-.88h-.003v-2.67h2.904v-1.608H94.94v-.347l-.003-2.35h-1.76v2.696H91.08v1.612h2.103v2.637c0 .37.04.75.116 1.133.398 1.972 1.964 3.348 4.082 3.348h.013c.888-.003 1.724-.272 2.362-.72l.002.488h1.632V58.69c.473-.272 1.076-.43 1.726-.43.444 0 .977.12 1.212.232l.756-1.553c-.47-.19-1.263-.33-1.928-.367zm26.395 6.261c-.008-1.776-1.295-2.215-2.463-2.483-.984-.227-2.305-.27-2.305-1.127 0-.87.923-1.154 1.47-1.154.958 0 1.617.258 2.4.66l.687-1.38c-.732-.363-1.805-.794-3.04-.794-1.478 0-3.192.82-3.192 2.65 0 1.8 1.348 2.16 2.87 2.457.923.182 1.667.4 1.732 1.187h-.002s.18 1.185-1.966 1.185h-2.297c-1.338 0-1.39-.585-1.39-1.397l.005-2.775c0-2.534-1.917-3.212-3.553-3.212-1.5 0-2.872.454-3.616.955v6.19c0 .183-.596.29-.9.29-.31 0-.95-.21-.95-.592v-5.887l-.34-.205c-.335-.176-1.567-.752-3.38-.752-1.594 0-2.857.575-3.656 1.66-.758 1.03-1.008 2.426-.703 3.928.408 2.018 2.078 3.37 4.155 3.37h.013c1.01 0 1.868-.314 2.555-.93.497.588 1.367.93 2.37.93 1.59 0 2.644-.938 2.644-.938v-6.053s.69-.37 1.91-.37c1.127 0 1.76.353 1.76 1.932h-.002v2.687c0 1.09.173 2.685 2.794 2.685h2.948c2.002 0 2.838-.916 3.188-1.685.163-.31.253-.65.253-1.013v-.018zm-18.258.294c-.322.317-1.148.867-2.197.868-1.436 0-2.154-1.027-2.35-1.99-.227-1.12-.04-2.117.525-2.808.504-.617 1.264-.943 2.195-.943h.002c.74 0 1.46.17 1.824.286v4.588z" fill="red"></path><circle cx="82.174" cy="49.005" r="1.855" fill="red"></circle><path d="M89.836 51.747c-.057-.306-.36-.516-1.06-.428-4.397.547-6.877.944-15.824 1.92-.73.08-1.345.184-1.414.678-.11.805 1.977.856 3.43 1.2.723.17 1.484.37 2.15.712.49.253.314.62.206.778-1.696 2.473-3.985 5.97-4.63 7.23-.638 1.248.438 1.878 1.5.936 2.516-2.237 3.295-3.244 5.548-5.008.308-.24.553-.188.634.18.045.203.093.463.135.78.047.354.05.958 0 1.376l-.007.046c-.007.108-.02.245-.04.414-.282 2.55-1.854 5.21-3.552 6.794a10.738 10.738 0 0 0 4.3-2.786l.02-.004c.242-.258.486-.554.724-.884.963-1.295 1.658-2.86 1.972-4.67a12.1 12.1 0 0 0 .174-1.195c.343-3.635 1.86-4.944 4.99-6.885.48-.298.828-.738.746-1.185z" fill="red"></path><linearGradient id="gradient_b_colored" gradientUnits="userSpaceOnUse" x1="71.221" y1="58.033" x2="81.538" y2="61.689"><stop offset="0" stop-color="red"></stop><stop offset=".799" stop-color="red" stop-opacity=".101"></stop><stop offset=".89" stop-color="red" stop-opacity="0"></stop></linearGradient><path d="M79.25 65.273c-.714.942-1.68 1.832-3.167 2.425-1.41.533-3.008.696-4.7.392a9.482 9.482 0 0 1-.903-.208c-4.713-1.322-7.75-6.05-6.865-10.962.938-5.223 5.95-8.707 11.17-7.77a.878.878 0 1 0 .31-1.728c-6.183-1.11-12.097 3.002-13.208 9.186-1.065 5.932 2.675 11.61 8.438 13.047a11.516 11.516 0 0 0 6.587-.298c1.697-1.585 3.27-4.245 3.552-6.795.02-.17.032-.306.04-.414a6.396 6.396 0 0 1-1.253 3.125z" fill="url(#gradient_b_colored)"></path><path d="M13.947 17.11V3.03h4.295v20.914h-4.225L4.3 10.034v13.908H.003V3.028H4.51l9.437 14.083zm14.585-9.223c4.683 0 8.24 3.31 8.24 8.203 0 4.895-3.557 8.204-8.24 8.204s-8.204-3.31-8.204-8.204 3.522-8.203 8.204-8.203zm0 3.66c-2.29 0-3.943 1.726-3.943 4.543s1.654 4.542 3.942 4.542 3.943-1.726 3.943-4.542c0-2.817-1.654-4.542-3.943-4.542zm14.83 12.395h-4.225V9.436c1.725-.916 3.98-1.443 6.267-1.443 1.232 0 2.113.105 3.274.422V12.5c-1.02-.423-2.147-.53-3.17-.53a7.05 7.05 0 0 0-2.147.353v11.62zm21.828-.388c-1.865.494-4.294.74-6.407.74-5.422 0-9.013-2.887-9.013-8.168 0-5 3.344-8.24 8.24-8.24 1.09 0 2.252.142 2.957.494V0h4.225v23.554zm-4.224-11.442c-.67-.317-1.55-.493-2.605-.493-2.57 0-4.294 1.584-4.294 4.365 0 2.993 1.866 4.683 4.86 4.683.527 0 1.337-.035 2.04-.176v-8.38zM84.16 3.028l3.91 15.915 3.696-15.915h4.33l-5.14 20.914h-5.563L81.8 9.12l-3.59 14.82h-5.492L67.542 3.028h4.472l3.732 15.915 3.837-15.915h4.578zm15.714 14.224v.07c.317 2.218 2.5 3.345 4.613 3.345 2.112 0 3.697-.493 5.246-1.408v3.59c-1.443 1.02-3.557 1.444-5.668 1.444-5.106 0-8.31-3.134-8.31-8.027 0-5.176 3.274-8.38 7.675-8.38 4.895 0 6.795 3.24 6.795 7.394v1.973h-10.35zm6.408-2.535c-.035-1.937-.95-3.345-2.957-3.345-1.83 0-3.028 1.303-3.416 3.345h6.372zm6.338 4.403c1.478 1.09 3.45 1.76 5 1.76 1.302 0 2.182-.388 2.182-1.374 0-.95-.67-1.338-2.395-1.69-3.556-.634-5.035-2.042-5.035-4.894 0-3.45 2.606-5.035 5.986-5.035 1.865 0 3.24.388 4.613 1.162v3.767c-1.48-.986-2.853-1.514-4.472-1.514-1.408 0-2.006.6-2.006 1.338 0 .81.562 1.233 2.04 1.585 4.05.74 5.424 2.29 5.424 5.105 0 3.415-2.57 4.964-6.232 4.964-1.9 0-3.838-.458-5.105-1.268V19.12zm12.145-10.88h2.358V4.365h4.226V8.24h4.47v3.52h-4.47v6.302c0 1.796.844 2.36 2.11 2.36 1.058 0 1.974-.317 2.888-.88v3.872c-1.127.6-2.464.88-4.05.88-2.71 0-5.175-1.303-5.175-5.105v-7.43h-2.358V8.24zm14.259-5.07c1.584-.248 4.084-.495 5.845-.495 4.822 0 8.133 1.62 8.133 5.88 0 2.5-1.69 4.225-3.873 4.577 2.816.282 4.86 2.007 4.86 5.035 0 3.803-2.855 6.09-9.65 6.09-1.83 0-3.907-.21-5.315-.422V3.17zm4.295 8.484h1.62c2.498 0 3.695-.95 3.695-2.747 0-1.69-1.3-2.5-3.38-2.5-.634 0-1.442.07-1.937.14v5.107zm0 8.838c.563.07 1.338.105 1.76.105 2.712 0 4.4-.81 4.4-2.746 0-1.9-1.513-2.605-3.837-2.605h-2.324v5.247zm21.195-6.832c0-1.513-1.268-2.146-2.816-2.146-1.867 0-3.31.563-4.543 1.303V9.154c1.41-.81 3.275-1.268 5.283-1.268 3.59 0 6.266 1.408 6.266 5.598v10.14c-1.514.352-3.908.634-5.914.634-3.98 0-7.043-1.197-7.043-4.824 0-3.274 2.64-4.823 7.043-4.823h1.725v-.95zm0 3.663h-1.408c-1.973 0-3.133.563-3.133 1.9 0 1.338 1.092 1.937 2.78 1.937.458 0 1.198-.035 1.76-.176v-3.66zM171.374 0h4.225v8.556c.74-.28 2.183-.67 3.872-.67 3.414 0 6.125 1.55 6.125 6.198v9.858h-4.26v-9.577c0-1.76-.95-2.676-2.78-2.676-1.022 0-2.114.14-2.958.457v11.795h-4.226V0zm16.888 9.26c2.22-.845 5.14-1.373 7.5-1.373 4.084 0 6.725 1.514 6.725 6.197v9.858h-4.26v-9.577c0-1.76-.95-2.676-2.78-2.676-1.022 0-2.08.175-2.96.457v11.795h-4.225V9.26z" fill="#00468C"></path></svg>